# Blender v2.74 (sub 0) OBJ File: ''
# www.blender.org
mtllib pirate-ship-fat.mtl
o Mast1
v 0.074346 2.269299 0.000000
v 0.074346 0.464683 0.000000
v -0.023473 2.269299 -0.030701
v -0.023473 2.269299 0.030701
v -0.023473 0.464683 -0.030701
v -0.023473 0.464683 0.030701
vt 0.000000 1.000000
vt 0.000000 0.000000
vt 1.000000 0.000000
vt 1.000000 1.000000
vn -1.000000 0.000000 0.000000
vn 0.000000 1.000000 0.000000
vn 0.000000 -1.000000 0.000000
vn 0.299500 0.000000 0.954100
vn 0.299500 0.000000 -0.954100
usemtl 514630
s 1
f 3/1/1 5/2/1 6/3/1 4/4/1
f 3/1/2 4/2/2 1/3/2
f 6/1/3 5/2/3 2/3/3
f 4/1/4 6/2/4 2/3/4 1/4/4
f 1/1/5 2/2/5 5/3/5 3/4/5
o Mast0
v -0.838654 2.562455 0.000000
v -0.838654 0.464683 0.000000
v -0.936473 2.562455 -0.030701
v -0.936473 2.562455 0.030701
v -0.936473 0.464683 -0.030701
v -0.936473 0.464683 0.030701
vt 0.000000 1.000000
vt 0.000000 0.000000
vt 1.000000 0.000000
vt 1.000000 1.000000
vn -1.000000 0.000000 0.000000
vn 0.000000 1.000000 0.000000
vn 0.000000 -1.000000 0.000000
vn 0.299500 0.000000 0.954100
vn 0.299500 0.000000 -0.954100
usemtl 514630
s 1
f 9/5/6 11/6/6 12/7/6 10/8/6
f 9/5/7 10/6/7 7/7/7
f 12/5/8 11/6/8 8/7/8
f 10/5/9 12/6/9 8/7/9 7/8/9
f 7/5/10 8/6/10 11/7/10 9/8/10
o Sail0
v -0.625314 2.313011 0.000000
v -0.206519 1.238487 0.000000
v -0.625314 0.616048 0.000000
v -0.396260 1.238487 -0.714752
v -0.396260 1.238487 0.714752
v -0.815055 0.616048 -0.588200
v -0.815055 0.616048 0.588200
v -0.815055 2.313011 0.588200
v -0.815055 2.313011 -0.588200
vt 0.000000 1.000000
vt 0.000000 0.000000
vt 1.000000 0.000000
vt 1.000000 1.000000
vn -0.829700 0.558200 0.000000
vn 0.000000 1.000000 0.000000
vn 0.000000 -1.000000 0.000000
vn 0.796000 -0.559100 0.231800
vn 0.796000 -0.559100 -0.231800
vn -0.931700 -0.363100 0.000000
vn 0.894300 0.363900 0.260500
vn 0.894300 0.363900 -0.260500
usemtl b0b0b0
s 1
f 16/9/11 18/10/11 19/11/11 17/12/11
f 21/9/12 20/10/12 13/11/12
f 19/9/13 18/10/13 15/11/13
f 17/9/14 19/10/14 15/11/14 14/12/14
f 14/9/15 15/10/15 18/11/15 16/12/15
f 16/10/16 17/10/16 20/10/16 21/10/16
f 17/10/17 14/10/17 13/10/17 20/10/17
f 14/10/18 16/10/18 21/10/18 13/10/18
o Sail1
v 0.329211 2.061735 0.000000
v 0.748006 1.140769 0.000000
v 0.329211 0.616048 0.000000
v 0.516740 1.140769 -0.658507
v 0.516740 1.140769 0.658507
v 0.097944 0.616048 -0.588200
v 0.097944 0.616048 0.588200
v 0.097944 2.061735 0.588200
v 0.097944 2.061735 -0.588200
vt 0.000000 1.000000
vt 0.000000 0.000000
vt 1.000000 0.000000
vt 1.000000 1.000000
vn -0.781600 0.623800 0.000000
vn 0.000000 1.000000 0.000000
vn 0.000000 -1.000000 0.000000
vn 0.742300 -0.610900 0.275400
vn 0.742300 -0.610900 -0.275400
vn -0.910300 -0.413900 0.000000
vn 0.858300 0.402400 0.318400
vn 0.858300 0.402400 -0.318400
usemtl b0b0b0
s 1
f 25/13/19 27/14/19 28/15/19 26/16/19
f 30/13/20 29/14/20 22/15/20
f 28/13/21 27/14/21 24/15/21
f 26/13/22 28/14/22 24/15/22 23/16/22
f 23/13/23 24/14/23 27/15/23 25/16/23
f 25/14/24 26/14/24 29/14/24 30/14/24
f 26/14/25 23/14/25 22/14/25 29/14/25
f 23/14/26 25/14/26 30/14/26 22/14/26
o Hull
v 1.447735 0.525438 0.000000
v 0.959409 -0.144100 0.000000
v 0.633942 0.491813 0.859554
v 0.633942 0.491813 -0.859554
v 0.131390 -0.144100 0.689856
v 0.131390 -0.144100 -0.689856
v -1.073699 0.491813 -0.750247
v -1.073699 0.491813 0.750247
v -1.070329 -0.144100 -0.500241
v -1.070329 -0.144100 0.500241
v -1.909530 0.491139 -0.478440
v -1.716202 -0.144774 -0.293411
v -1.716202 -0.144774 0.293411
v -1.909530 0.491139 0.478440
v -1.437950 0.834280 -0.592000
v -1.437950 0.834280 0.592000
v -1.973013 0.833606 -0.592000
v -1.973013 0.833606 0.592000
v -0.995297 -0.344143 -0.389341
v 0.004897 -0.344143 -0.536919
v 0.004897 -0.344143 0.536919
v -0.995297 -0.344143 0.389341
v -1.497984 -0.344667 0.228364
v -1.497984 -0.344667 -0.228364
v 0.730414 -0.344143 0.000000
vt -1.409530 0.978440
vt -1.216202 0.793411
vt -1.216202 0.206589
vt -1.409530 0.021560
vt -0.573699 1.250247
vt -0.573699 -0.250247
vt 1.133942 -0.359554
vt 1.133942 1.359554
vt -0.495297 0.110659
vt -0.495297 0.889341
vt 0.504897 1.036919
vt 0.504897 -0.036919
vt -0.570329 -0.000241
vt 0.631390 -0.189856
vt 0.631390 1.189856
vt -0.570329 1.000241
vt -0.997984 0.271636
vt -0.997984 0.728364
vt -0.937950 -0.092000
vt -0.937950 1.092000
vt -1.473013 1.092000
vt -1.473013 -0.092000
vt 1.459409 0.500000
vt 1.947735 0.500000
vt 1.230415 0.500000
vn -0.956800 -0.290900 0.000000
vn 0.000000 1.000000 0.000000
vn 0.000400 -1.000000 0.000000
vn 0.000000 -1.000000 0.000000
vn -0.145200 -0.362700 0.920500
vn -0.062400 -0.211000 0.975500
vn -0.154300 -0.139100 -0.978200
vn -0.059500 -0.365500 -0.928900
vn -0.287700 -0.349500 -0.891700
vn 0.001000 -1.000000 0.000000
vn -0.287700 -0.349500 0.891700
vn -0.001300 1.000000 0.000000
vn 0.685000 0.728600 0.000000
vn -0.194100 -0.057300 -0.979300
vn -0.983200 -0.182300 0.000000
vn -0.194100 -0.057300 0.979300
vn 0.589100 -0.526800 0.612800
vn 0.589100 -0.526800 -0.612800
vn -0.041300 0.999100 0.000000
vn -0.127900 -0.534500 -0.835400
vn -0.127900 -0.534500 0.835400
vn -0.256100 -0.540400 0.801500
vn -0.675500 -0.737400 0.000000
vn -0.256100 -0.540400 -0.801500
vn 0.472000 -0.647900 -0.597800
vn 0.472000 -0.647900 0.597800
usemtl 6b551d
s 1
f 41/17/27 42/18/27 43/19/27
f 41/17/27 43/19/27 44/20/27
f 37/21/28 38/22/28 33/23/28
f 37/21/28 33/23/28 34/24/28
f 52/25/29 49/26/29 50/27/30
f 52/25/29 50/27/30 51/28/30
f 38/22/31 40/29/31 35/30/31
f 38/22/32 35/30/32 33/23/32
f 34/24/33 36/31/33 39/32/33
f 34/24/34 39/32/34 37/21/34
f 37/21/35 39/32/35 42/18/35 41/17/35
f 49/26/29 52/25/29 53/33/36 54/34/36
f 40/29/37 38/22/37 44/20/37 43/19/37
f 46/35/38 45/36/38 47/37/38 48/38/38
f 38/22/39 37/21/39 45/36/39 46/35/39
f 37/21/40 41/17/40 47/37/40 45/36/40
f 41/17/41 44/20/41 48/38/41 47/37/41
f 44/20/42 38/22/42 46/35/42 48/38/42
f 33/23/43 35/30/43 32/39/43 31/40/43
f 51/28/30 50/27/30 55/41/30
f 36/31/44 34/24/44 31/40/44 32/39/44
f 34/24/45 33/23/45 31/40/45
f 39/32/46 36/31/46 50/27/46 49/26/46
f 35/30/47 40/29/47 52/25/47 51/28/47
f 40/29/48 43/19/48 53/33/48 52/25/48
f 43/19/49 42/18/49 54/34/49 53/33/49
f 42/18/50 39/32/50 49/26/50 54/34/50
f 36/31/51 32/39/51 55/41/51 50/27/51
f 32/39/52 35/30/52 51/28/52 55/41/52
